<svg version="1.1" id="Layer_1" xmlns="http://www.w3.org/2000/svg" x="0" y="0" viewBox="0 0 654.8 145.2" xml:space="preserve"><style>.st1{fill:#0073ab}</style><path d="M120.4 59.8c-.3-.3-.6-.5-1-.6l.4-.3c-.2-.1-.8-.3-.6-.8-.6-.5-.9-1.2-1.4-1.6s-1.3-.7-1.7-1.1-1.1-.4-1-.5l-.4-1.1-1.1.3c.1-.4 0-.8-.1-1.2l-.8-.7-.2-1.3c-.5-.4-1-1-1.4-1.5-.1-1.1-1.1-.7-1.8-1.7-2.5-.5-6.5-4.3-5.2-7.1-.1-.5-.1-1 0-1.5.3-.5.6-.9.9-1.4-.2-.4-.2-.9-.1-1.4l.4-.3c0-.5 0-1.1.3-1.6-.1-.3-.2-.6-.3-.8.4-.9.4-2 .1-2.9l.3-.4c-.2-.8-.1-1.5.2-2.3-1.6-1.6-.3-5.4-2.7-7 .4-.4.2-.8-.2-1.2l-1.2-.7c-.5-.6-.8-1.3-.8-2.1-.3-.5-.8-.8-1.4-1-.3-1.5-1.7-2-1.9-3.7-.3-.4-.8-.7-1.3-.8-.3-.8-1.1-1.3-2-1.3-.3-.5-.7-1-1.1-1.4l-.5-.1c-.4-.2-.6-.5-.7-.9-1.7-1.3-5.8-4.3-8-3.5-1.3-.8-2.7-1.5-4.1-2.2-.8.1-1.5.1-2.3.1-.7-.7-1.6-.7-2.3-1.5-1.7.4-3.3-.5-5.1-.6-2.2-.1-4.6-.1-7.1-.1l-.8.6C56.6-1 51 1.1 45.8 3.3c-.7.8-1.1 1.5-2.2 1.5-.5.3-.9.7-1.2 1.3l.3.6c-.2.3-.4.6-.5 1 .1.5.3.9.6 1.3l-.1.7c2.3 1.6 6.9-.2 9.3-1.1 1 .4 3.2-.1 4.4-.1s2.5 0 3.8.1c2.3.1 4.7.8 7 .6l.5.5c2.7.4 5.1 1.6 7.9 1.6.2.3.6.6 1 .5l.3.5.5.1.6.6c1.6.4 2.7 1.5 4.4 1.8 1.3 1.4 3 2.3 4.8 2.7.2 1.6 1.8 1.4 2.8 2.2.1.6.7 1.1 1.3 1 1.3 2.4 3.8 4.2 4.4 7.1.7 3.4 1.4 7.2-1.4 10.1-.9-.1-1.8-.2-2.7-.4-.8-.3-1.5-.7-2.3-1.2-1.1-.8-1.6.2-2.6.6-.5-.9-1.3-.9-2.2-.5l-.2-.6-.7-.3-.5.3-.4-.5c-.6.2-1-.1-1.1-.7-.5-.5-1.4-.5-1.9 0 0 .1-.1.1-.1.2l-.4-.5c-.9-.4-2-.4-2.9 0l-.4-.4-.7-.2c-.8-.9-2.1-1-3-.2-.1.1-.2.1-.2.2-1.3 0-2.6-.6-3.6.3-.3-.3-.6-.5-1-.7-1.1.1-1.9 0-2.7.7-.5 0-.9.1-1.4.1l-.1-.5-.2.1v-.5c-1.7-.5-4.4-1-6.1-.7-.9.1-1.9.1-2.8-.1-1.4-.1-2.1 1.3-3.1 1.1-1.3-.4-2.6-.4-3.9-.1-1 .3-2 .7-2.9 1.1-.9-.4-2.5.8-3.6.7-2-.2-2 1-3.6 1.4-1.2 0-2-.8-3.1 0-.7.5-2.4 1-2.6 1.3s-.3.8-.6.9c-.6.1-1.3 0-1.9-.2-.6.2-1.1.7-1.3 1.3-1.1-.2-2.2.1-2.9.8-.9.1-1.8.5-2.5 1.1-.1.1-.3.1-.4.1 6.6 3 11.3-2.1 28-4.2 17.6-2.2 27.2 1.6 27.2 1.6-7 0-13.9 1.2-20.4 3.4-9.3 3.2-8.2 5.1-8.2 5.1s2-2 9.8-3.1c9.1-1.3 14.1.1 22 0s11.5-2.3 11.5-2.3S87 54.3 58 53.2c-21.6-.8-35.8-10.7-36.8-11.4-.9-.4-1.9-.8-2.8-1.3-.2 0-.2-.3-.3-.3-.4 0-.8-.1-1.1-.4v-.2c-1.6-.6-2.5-.9-4.2-.2v.2c.3 0 .6.2.8.4-.2.1-.3.2-.5.3v.2c.5.3 1 .5 1.6.8.1.7.5 1.4 1.1 1.8l-.3.4v.2c.3.1.6.2.9.4.3.1.8 0 .9.2s-.3 1.1-.7 1.5c-.4 0-.8 0-1.2.1-.2.2.1.5-.5.6-.7.3-1.4.7-2 1.2-.2.2-.1.5-.4.7s-.6 0-.8.1c-.3.3.1.5-.1.8s-.8.3-1.3.5c-.3.2-.3.7-.5.8-.1.1-.3.1-.4 0-.7.1-1.2.8-1.2 1.5-1.3.1-1.3 1.7-2.8 1.9 0 .2.1.4-.1.6s-1 .6-1.1 1.2C3 55.9 2.6 57 2 57.9c.2.2.2.5.1.8-1.7.4-.7 2.2-1.9 2.7-.3.4-.4.8-.2 1.3l.4.4c.8.3 1.2.1 1.1-.7 1.6-.4 2.5-2.6 3.7-3.7 1.4-1.3 3.8-2.1 4.7-3.9.7-.2 1.4-.5 2-.9.1-.1.1-.3.2-.4.8-.3 2.8-1.4 3.1-2.1 0-.1.1-.2.3-.3.2-.1.4-.1.7 0 .4-.3 1-.5 1.5-.5.1-.2 0-.3.3-.6s1.3-.4 1.5-1.1l.2-.2c.6 0 1.1-.1 1.7-.2 1.9 1.1 3.3 3.1 5.5 3.4.3.6.9.9 1.6 1 .2.1.4.3.6.6 1.3.1 2.6 1.2 4 1.5l.2.3c.3 0 .6-.1.9-.3.3.3.7.5 1.1.5-.1.5.1.8.6.8l.4-.1c.6.4 1.4.6 2.1.6l.1.2c.8-.4 1.3-.3 1.4.6.4.3.9.4 1.3.4.8.3 1.6.5 2.5.4l.3.1c.1.1.3.2.4.3l.4-.2.4.4c.4 0 .8-.1 1-.4-.4 1.3.4 1 1 .1-.2 0-.2.2-.2.4 0 .3 1-.4 1.1-.4-.1.4 0 .8.3 1.1.4-.1.8-.4.8-.8-.1.4 0 .7.4.7l.6-.6c0 .2.1.4.2.6.2.1.4 0 .6-.1l.2-.6.1.4c1.2.4 2.4.6 3.6.7.3-.1.6-.2.8-.4l.8.2c.8 1.1 3.6 0 4.8.7 1-.2 2.7-1.3 3.5-.5.8-.3 1.8-.3 2.6.1.6-.2 1.2-.4 1.8-.5.7.2 1.3.2 2 .2.6 0 1.9-.6 2.2-.5s.2.8.9-.2c.3.1.6.2.8.1.1-.2.3-.3.5-.2 0 0 .1 0 .1.1 1.5-.1 2.4-1.5 3.8-1.3s2.4-1.4 4.3-1.1l.3-.2.1-.2c.2.1.5.2.6.4h.2c.3-1.2 1.5-.6 2.7-1 0-.2.1-.4.1-.7.4-.1.7-.1 1.1 0 .6-.2 1-.6 1.3-1.2l.7-.3.4-.5.2.1c.4-.2.8-.3 1.2-.6.8-1.5 2.6-1.2 3.1-2.5l1.1.1c.1-1 .7-1.7 1.7-1.6l.4-.3c.1-.3.3-.5.5-.7.9-.3 2.4-.3 2.4.5.5.6 1.3.9 2.1.9.5.8 1.3 1.4 2.3 1.7.2.3.3.6.3 1 1.2.5 1.8 1.5 3 2 .1.3.2.6.4.8.9.4 1.9.5 2.4 1.5.3.1.6.2 1 .2.4.7.6 1.4 1 .8l.7.6s-.1.3.4.8c.2.2.9.6 1.1.8.4.4.9.8 1.5 1.1 0 .2.1.4.3.5.5.2 1 .2 1.5.1-.1.1 1.5-.2.5-1.1zM21 41.8c.3.1.4.1.6.1-.2 0-.3-.1-.6-.1z" fill="#34aca5"/><path class="st1" d="M279.1 95.8c0 .3-.1.4-.4.4h-8.9c-.2 0-.3-.1-.3-.3V76.8c0-.2.1-.3.3-.3h9.1c.3 0 .4.1.4.2s0 .2-.1.4l-.4 1.2c-.1.3-.2.3-.4.3H272V85h5.6c.3 0 .4 0 .4.4v1.3c0 .3-.1.4-.4.4H272v7.3h6.9c.2 0 .3.1.3.3l-.1 1.1zm13.5.1c0 .2-.1.3-.3.3h-1.6c-.2 0-.4-.1-.4-.3v-9.6c0-1.2-.3-2.3-1.9-2.3-1.4.1-2.8.7-3.8 1.8V96c0 .2-.1.3-.3.3h-1.6c-.2 0-.3-.1-.3-.3V86c0-.6 0-1.1-.1-1.7-.1-.4-.3-.8-.5-1.2 0 0 0-.1.1-.2l1.3-.7c.1 0 .1-.1.2-.1.5 0 .9 1.7.9 2 1.3-1.2 2.9-1.9 4.6-2 3.2 0 3.4 2.2 3.4 4.3l.3 9.5zm9.7.3c-.1.2-.1.3-.4.3h-1.1c-.3 0-.3-.1-.4-.3L295.6 83v-.2c0-.1 0-.1.3-.2l1.4-.4h.3c.1 0 .1.1.2.2l3.2 9.4c.2.6.4 1.3.5 1.8h.1c.1-.6.3-1.2.5-1.8l3.4-9.4c.1-.1.1-.2.2-.2h.3l1.4.4c.2.1.3.1.3.2s-.1.2-.1.2l-5.3 13.2zm11.3-.3c0 .2-.1.3-.3.3h-1.6c-.2 0-.3-.1-.3-.3V84.2h-.5c-.2 0-.3-.1-.3-.3v-1.2c0-.2.1-.3.3-.3h2.5c.3 0 .4.2.4.4l-.2 13.1zm-1.2-16.8c-1 0-1.8-.8-1.8-1.7 0-1 .8-1.8 1.7-1.8 1 0 1.8.8 1.8 1.7.1 1-.7 1.8-1.7 1.8zm218.2 16.8c0 .2-.1.3-.3.3h-1.6c-.2 0-.3-.1-.3-.3V84.2h-.5c-.2 0-.3-.1-.3-.3v-1.2c0-.2.1-.3.3-.3h2.5c.3 0 .4.2.4.4l-.2 13.1zm-1.2-16.8c-1 0-1.8-.8-1.8-1.7 0-1 .8-1.8 1.7-1.8 1 0 1.8.8 1.8 1.7 0 1-.7 1.8-1.7 1.8zm-209 16.8c0 .2-.1.3-.3.3h-1.6c-.2 0-.3-.1-.3-.3V86c0-.8-.2-1.5-.5-2.2-.1-.2-.3-.5-.3-.7 0-.1.1-.2.2-.3l1.1-.7c.1-.1.2-.1.3-.1.5 0 1 1.8 1.1 2.4.8-.8 1.8-2.4 3.5-2.4.7 0 1.4.2 1.4.5 0 .1-.1.2-.1.2l-.6 1.5c0 .1-.1.2-.2.2-.3-.1-.6-.2-1-.3-1 0-2 1.5-2.7 2.2v9.6zm11 .8c-3.9 0-5.6-3.1-5.6-7.3s1.7-7.4 5.9-7.4c3.9 0 5.6 3.2 5.6 7.2s-1.7 7.5-5.9 7.5zm3.5-7.5c0-2.8-.8-5.4-3.4-5.4s-3.4 2.5-3.4 5.3c0 3.3.8 5.7 3.4 5.7s3.4-2.3 3.4-5.6zm16.4 6.7c0 .2-.1.3-.3.3h-1.6c-.2 0-.3-.1-.3-.3v-9.7c0-1.2-.3-2.3-1.9-2.3-1.4.1-2.8.7-3.8 1.8v10.2c0 .2-.1.3-.3.3h-1.6c-.2 0-.3-.1-.3-.3v-10c0-.6 0-1.1-.1-1.7-.1-.4-.3-.8-.5-1.2 0 0 0-.1.1-.2l1.3-.7c.1 0 .1-.1.2-.1.5 0 .9 1.7.9 2 1.3-1.2 2.9-1.9 4.6-2 3.2 0 3.4 2.2 3.4 4.3l.2 9.6zm4.9-9.9c0-.7 0-1.3-.2-2-.1-.3-.2-.7-.4-1 0 0 0-.1.1-.2l1.2-.7c.1-.1.2-.1.3-.1.4 0 .8 1.5.8 1.7 1-.9 2.4-1.5 3.7-1.7 1.9 0 2.7.6 3 1.7.9-.6 2.4-1.7 3.8-1.7 3.2 0 3.4 2.2 3.4 4.3v9.6c0 .2-.1.3-.3.3H370c-.2 0-.3-.1-.3-.3v-9.7c0-1.2-.3-2.3-1.8-2.3-1 .1-2 .5-2.8 1.2v10.8c0 .2-.1.3-.3.3h-1.6c-.2 0-.3-.1-.3-.3v-9.7c0-1.2-.3-2.3-1.9-2.3-1 .1-2 .5-2.8 1.2v10.7c0 .2-.1.3-.3.3h-1.6c-.2 0-.3-.1-.3-.3v-.1l.2-9.7zm29.5 8.9c0 .1.1.1.1.2 0 .3-2.4 1.5-4.5 1.5-3.8 0-6.1-2.9-6.1-7.3 0-4.2 2.1-7.3 5.7-7.3 4.8 0 5.2 4.7 5.2 7.1 0 .4 0 .6-.3.6h-8.3c0 1.8.7 4.9 4 4.9 1.3-.1 2.5-.5 3.5-1.2.1 0 .1.1.2.2l.5 1.3zm-2-6.9c0-1.5-.5-4.2-3-4.2s-3.2 2.8-3.2 4.2h6.2zm16.2 7.9c0 .2-.1.3-.3.3H398c-.2 0-.3-.1-.3-.3v-9.7c0-1.2-.3-2.3-1.9-2.3-1.4.1-2.8.7-3.8 1.8v10.2c0 .2-.1.3-.3.3h-1.6c-.2 0-.3-.1-.3-.3v-10c0-.6 0-1.1-.1-1.7-.1-.4-.3-.8-.5-1.2 0 0 0-.1.1-.2l1.3-.7c.1 0 .1-.1.2-.1.5 0 .9 1.7.9 2 1.3-1.2 2.9-1.9 4.6-2 3.2 0 3.4 2.2 3.4 4.3l.2 9.6zm11.9-.7c0 .1.1.2.1.3 0 .4-2.2 1.2-3.7 1.2-1 .1-2-.3-2.7-1-.7-.9-1-2.1-.8-3.3v-8.2h-2.2c-.2 0-.2-.2-.2-.3v-1.1c0-.2 0-.3.2-.3h2.2v-4c0-.2.1-.3.3-.3l1.5-.4h.2c.1 0 .1.1.1.3v4.4h4.3c.2 0 .3 0 .3.2v.2L411 84c-.1.1-.2.2-.4.3h-3.8v8.2c0 1.2 0 2.3 1.7 2.3 1-.1 1.9-.4 2.8-.8.1 0 .2.1.2.2l.3 1zm11.2-3.5c-.1 1 0 2 .3 2.9.1.3.5.9.5 1.1s-.2.2-.3.2l-1.1.7c-.1 0-.2.1-.2.1-.4 0-1-1.5-1.1-1.9-1.1 1.2-2.6 1.9-4.1 1.9-2.3 0-3.7-1.5-3.7-4 0-4.9 5.8-5 7.5-5v-1c0-1.7-.5-2.6-2.6-2.6-1.2.1-2.4.4-3.5.9-.1 0-.2-.1-.2-.2l-.4-1c-.1-.1-.1-.2-.1-.4 0-.5 2.6-1.3 4.5-1.3 3.3 0 4.4 1.6 4.4 4v5.6zm-2.2-2.4c-1.3 0-5.4 0-5.4 3-.1 1.2.7 2.3 2 2.4h.1c1.5 0 2.8-1.4 3.3-1.8v-3.6zm12.1 6.4c0 .1.1.1.1.2 0 .3-1.4.7-2.5.7-1.1.1-2.2-.4-2.7-1.4-.3-1.4-.5-2.8-.4-4.2V76c0-.2.1-.3.2-.3l1.4-.3c.1 0 .2-.1.3-.1.2 0 .2.2.2.4v15.4c0 .9 0 2.4.1 2.7.1.6.6 1 1.2 1 .5-.1 1-.2 1.5-.4.2 0 .2.1.2.2l.4 1.1zm13.4.2c0 .2-.1.3-.3.3h-1.8c-.2 0-.3-.1-.3-.3V76.8c0-.2.1-.3.3-.3h4.6c2.2 0 5.8.1 5.8 5.2 0 4.9-3.2 6.2-6.2 6.2h-2.1v8zm1.9-10c2.1 0 4.1-.5 4.1-4.1 0-3.2-2.1-3.3-3.7-3.3h-2.2v7.4h1.8zm12.1 10c0 .2-.1.3-.3.3h-1.6c-.2 0-.3-.1-.3-.3V86c0-.8-.2-1.5-.5-2.2-.1-.2-.3-.5-.3-.7 0-.1.1-.2.2-.3l1.1-.7c.1-.1.2-.1.3-.1.5 0 1 1.8 1.1 2.4.8-.8 1.8-2.4 3.5-2.4.7 0 1.4.2 1.4.5 0 .1-.1.2-.1.2l-.6 1.5c0 .1-.1.2-.2.2-.3-.1-.7-.2-1-.3-1 0-2 1.5-2.7 2.2v9.6zm10.9.8c-3.9 0-5.6-3.1-5.6-7.3s1.7-7.4 5.8-7.4c4 0 5.6 3.2 5.6 7.2s-1.6 7.5-5.8 7.5zm3.5-7.5c0-2.8-.8-5.4-3.4-5.4s-3.4 2.5-3.4 5.3c0 3.3.8 5.7 3.4 5.7s3.4-2.3 3.4-5.6zm13.9 6c0 .1.1.2.1.3 0 .4-2.2 1.2-3.7 1.2-1 .1-2-.3-2.7-1-.7-.9-1-2.1-.8-3.3v-8.2h-2.1c-.2 0-.2-.2-.2-.3v-1.1c0-.2 0-.3.2-.3h2.2v-4c0-.2.1-.3.3-.3l1.5-.4h.2s.1.1.1.3v4.4h4.3c.2 0 .3 0 .3.2v.2l-.4 1.1c-.1.2-.2.2-.4.3h-3.8v8.2c0 1.2 0 2.3 1.7 2.3 1-.1 1.9-.4 2.8-.8.1 0 .2.1.2.2l.2 1zm11.9-.3c0 .1.1.1.1.2 0 .3-2.4 1.5-4.5 1.5-3.8 0-6.1-2.9-6.1-7.3 0-4.2 2.1-7.3 5.7-7.3 4.8 0 5.2 4.7 5.2 7.1 0 .4 0 .6-.3.6h-8.3c0 1.8.7 4.9 4 4.9 1.3-.1 2.5-.5 3.5-1.2.1 0 .1.1.2.2l.5 1.3zm-2-6.9c0-1.5-.5-4.2-3-4.2s-3.2 2.8-3.2 4.2h6.2zm15 6.9c0 .1.1.1.1.2 0 .3-2.4 1.5-4.5 1.5-3.4 0-5.4-2.7-5.4-6.9 0-4.8 2.3-7.7 5.8-7.7 1.9 0 4.2 1.3 4.2 1.8 0 .1-.1.2-.1.2l-.7 1.2c-.1.1-.1.2-.2.2-.8-.8-1.9-1.3-3.1-1.5-2.8 0-3.7 2.1-3.7 5.4 0 2.6.5 5.4 3.3 5.4 1.3-.1 2.5-.5 3.5-1.2.1 0 .1.1.2.2l.6 1.2zm10.9.3c0 .1.1.2.1.3 0 .4-2.2 1.2-3.7 1.2-1 .1-2-.3-2.7-1-.7-.9-1-2.1-.8-3.3v-8.2H515c-.2 0-.2-.2-.2-.3v-1.1c0-.2 0-.3.2-.3h2.2v-4c0-.2.1-.3.3-.3l1.5-.4h.2s.1.1.1.3v4.4h4.3c.2 0 .3 0 .3.2v.2l-.4 1.1c-.1.2-.2.2-.4.3h-3.8v8.2c0 1.2 0 2.3 1.7 2.3 1-.1 1.9-.4 2.8-.8.1 0 .2.1.2.2l.4 1zm14.6 1.5c-3.9 0-5.6-3.1-5.6-7.3s1.7-7.4 5.8-7.4c3.9 0 5.6 3.2 5.6 7.2s-1.6 7.5-5.8 7.5zm3.5-7.5c0-2.8-.8-5.4-3.4-5.4s-3.4 2.5-3.4 5.3c0 3.3.8 5.7 3.4 5.7s3.4-2.3 3.4-5.6zm16.4 6.7c0 .2-.1.3-.3.3H557c-.2 0-.3-.1-.3-.3v-9.7c0-1.2-.3-2.3-1.9-2.3-1.4.1-2.8.7-3.8 1.8v10.2c0 .2-.1.3-.3.3h-1.6c-.2 0-.3-.1-.3-.3v-10c0-.6 0-1.1-.1-1.7-.1-.4-.3-.8-.5-1.2 0 0 0-.1.1-.2l1.3-.7c.1 0 .1-.1.2-.1.5 0 .9 1.7.9 2 1.3-1.2 2.9-1.9 4.6-2 3.2 0 3.4 2.2 3.4 4.3l.2 9.6zm26-.3c.1.2.1.3.2.5s-.1.2-.4.2h-1.8c-.3 0-.5-.1-.5-.3l-1.6-5.6h-5.9l-1.5 5.6c-.1.2-.2.3-.5.3H571c-.3 0-.4 0-.4-.2s.1-.3.1-.5l5.8-18.8c.1-.3.1-.3.4-.3h1.7c.2 0 .3 0 .4.3l5.9 18.8zM578.4 82c-.2-.9-.5-1.9-.7-2.7h-.1c-.1.7-.4 2-.6 2.7l-1.8 6.4h4.8l-1.6-6.4zm18.8 8.7c0 1.6.2 5 .2 6.5 0 2.6-1.2 5.1-5.1 5.1-2.2 0-4.8-1-4.8-1.5 0-.1 0-.3.1-.4l.5-1c0-.1.1-.2.2-.2 1.2.6 2.6 1 3.9 1.1 2.7 0 3-1.6 3-3.1s-.1-2.6-.1-3c-1.1 1-2.5 1.5-3.9 1.6-2.6 0-4.4-2.3-4.4-6.4 0-4.5 1.8-7.5 5.4-7.5 1.2 0 2.4.4 3.4 1.2.3-.7.6-1.2.8-1.2.1 0 .2 0 .3.1l1.3.8c.1.1.1.1.1.2 0 .2-.3.4-.5 1.1-.3.7-.4 1.4-.4 2.1v4.5zm-2.2-6c-.8-.5-1.7-.7-2.7-.8-2.2 0-3.2 1.9-3.2 5s.5 5 2.5 5c1.2-.1 2.4-.6 3.4-1.4v-7.8zm16 10.2c0 .1.1.1.1.2 0 .3-2.4 1.5-4.5 1.5-3.8 0-6.1-2.9-6.1-7.3 0-4.2 2.1-7.3 5.7-7.3 4.8 0 5.2 4.7 5.2 7.1 0 .4 0 .6-.3.6h-8.3c0 1.8.7 4.9 4 4.9 1.3-.1 2.5-.5 3.5-1.2.1 0 .1.1.2.2l.5 1.3zm-2-6.9c0-1.5-.5-4.2-3-4.2s-3.2 2.8-3.2 4.2h6.2zm16.1 7.9c0 .2-.1.3-.3.3h-1.6c-.2 0-.3-.1-.3-.3v-9.7c0-1.2-.3-2.3-1.9-2.3-1.4.1-2.8.7-3.8 1.7v10.2c0 .2-.1.3-.3.3h-1.6c-.2 0-.3-.1-.3-.3v-10c0-.6 0-1.1-.1-1.7-.1-.4-.3-.8-.5-1.2 0 0 0-.1.2-.2l1.3-.7c.1 0 .2-.1.2-.1.5 0 .9 1.7.9 2 1.3-1.2 2.9-1.9 4.6-2 3.2 0 3.4 2.2 3.4 4.3l.1 9.7zm13.3-1c0 .1.1.1.1.2 0 .3-2.4 1.5-4.6 1.5-3.4 0-5.4-2.7-5.4-6.9 0-4.8 2.3-7.7 5.8-7.7 1.9 0 4.1 1.3 4.1 1.8 0 .1 0 .2-.1.2l-.7 1.2c0 .1-.1.2-.2.2-.8-.8-1.9-1.3-3-1.5-2.8 0-3.7 2.1-3.7 5.4 0 2.6.5 5.4 3.3 5.4 1.3-.1 2.5-.5 3.5-1.2.1 0 .1.1.2.2l.7 1.2zm9.9-.5c-.5 2-1.2 3.9-2 5.7-.6 1.3-2 2.1-3.4 2.1-1.6 0-3.6-1-3.6-1.4v-.2l.6-1.1c0-.1.1-.1.2-.1.3 0 1.3 1.1 2.8 1.1 1.1 0 1.7-1.1 2.2-2.4l.6-1.8v3.2c-.3 0-5.8-16-5.8-16 0-.1-.1-.3 0-.4 0-.1.1-.2.2-.2l1.2-.5c.1-.1.3-.1.4-.1.1 0 .3.1.3.2l3.6 10.9.6 2.1h.1c.1-.7.3-1.3.4-2l2.9-10.9c0-.1.2-.2.3-.2.1 0 .3 0 .4.1l1.2.5c.1.1.2.1.2.2s0 .3-.1.4l-3.3 10.8zm-375.7 12.3c.1-.1.2-.2.3-.2h1c.2 0 .3 0 .3.3l1.3 13.7v.2c0 .1-.1.1-.2.1H274c-.2 0-.2-.1-.2-.3l-.3-4H269l-2.1 4.1c-.1.2-.1.2-.3.2h-1.1c-.1 0-.2 0-.2-.2 0-.1 0-.2.1-.3l7.2-13.6zm.5 3.7c-.1-.7-.1-1.4-.1-2l-.8 2-2.4 4.6h3.6l-.3-4.6zm6.2 3.1c.1-.4.1-.8.1-1.2 0-.4-.1-.8-.2-1.3 0-.1.1-.1.2-.2l.7-.3c.1 0 .2-.1.3-.1s.4.6.4 1.3c0 .4-.1.8-.1.9.8-1.3 2.2-2.2 3.8-2.2 1.1 0 1.9.6 1.9 1.7 0 .5-.1 1-.2 1.4l-1.5 7c0 .1-.1.2-.3.2h-1.1c-.1 0-.2 0-.2-.1v-.1l1.5-6.9c.1-.3.1-.5.1-.8 0-.5-.3-.9-.7-.9h-.2c-2.3 0-3.5 2.8-3.8 4.1l-1 4.5c0 .1-.1.2-.3.2h-1.1c-.1 0-.2 0-.2-.1v-.1l1.9-7zm22.8 6.2c0 .2-.1.3-.2.4-1 .6-2.2.9-3.4.9-2.3 0-3.8-1.4-3.8-4.2 0-4.4 1.8-10.6 6.4-10.6 1.2-.1 2.3.2 3.3.9.1.1.2.2.2.3 0 .1-.1.2-.1.3l-.4.6c-.1.1-.2.2-.3.2s-.2-.1-.3-.2c-.6-.5-1.3-.8-2.1-.8-3.7 0-4.9 6.2-4.9 9.4 0 1.8.8 2.7 2.2 2.7.7 0 1.4-.1 2-.3l.9-4.5h-1.8c-.1 0-.2 0-.2-.1s0-.2.1-.3l.2-.6c0-.1.1-.2.2-.2h3.2c.1 0 .2 0 .2.1s0 .2-.1.3l-1.3 5.7zm5.6-13.4c0-.1.1-.3.2-.3l1-.3h.2c.1 0 .2.1.1.2l-1.1 5.2c-.1.5-.3 1.1-.5 1.6.8-1.3 2.2-2.2 3.8-2.2.9-.1 1.8.5 1.9 1.4v.2c0 .5-.1 1-.2 1.4l-1.5 7c0 .1-.1.2-.3.2h-1.1c-.1 0-.2 0-.2-.1v-.1l1.5-6.9c.1-.3.1-.5.1-.8 0-.6-.3-.9-.9-.9-2.2 0-3.5 2.8-3.8 4.1l-1 4.5c0 .1-.1.2-.3.2h-1.1c-.1 0-.2 0-.2-.1v-.1l3.4-14.2zm8.9 7.2c.1-.4.1-.8.1-1.2 0-.4-.1-.8-.2-1.3 0-.1.1-.1.2-.2l.8-.3c.1 0 .2-.1.3-.1.2 0 .4.6.4 1.3 0 .4-.1.8-.1.9.8-1.3 2.2-2.2 3.8-2.2.9-.1 1.8.5 1.9 1.4v.2c0 .5-.1 1-.2 1.4l-1.5 7c0 .1-.1.2-.3.2h-1.1c-.1 0-.2 0-.2-.1v-.1l1.5-6.9c.1-.3.1-.5.1-.8 0-.4-.3-.8-.7-.9h-.2c-2.3 0-3.5 2.8-3.8 4.1l-1 4.5c0 .1-.1.2-.3.2H315c-.1 0-.2 0-.2-.1v-.1l1.8-6.9zm10.9 6.8c0 .2-.1.4-.3.4h-1.1c-.1 0-.2 0-.2-.1v-.3l1.8-8.4h-1.6c-.1 0-.2-.1-.2-.1v-.2l.1-.7c0-.1.1-.2.3-.2h2.8c.3 0 .3 0 .3.2s-.1.3-.1.5l-1.8 8.9zm.2-11h-.1c-.1 0-.1-.1-.2-.1l-.2-.4s-.1-.1-.1-.2 0-.1.1-.1l3.2-2.3c.1 0 .1-.1.2-.1s.1.1.2.1l.6 1c0 .1.1.1.1.2s-.1.2-.1.2l-3.7 1.7zm11.7 4.7c0 3.3-1.8 7.1-5.4 7.1-1.9 0-3.1-1-3.1-3.5 0-3.4 1.7-7.1 5.3-7.1 2.1 0 3.2 1.2 3.2 3.5zm-3.4-2.2c-2.5 0-3.5 3.3-3.5 5.7 0 1.4.5 2.2 1.8 2.2 2.5 0 3.5-3.4 3.5-5.7.1-1.6-.7-2.2-1.8-2.2zm16.5 1.8c.1-.3.1-.5.1-.8 0-.4-.3-.8-.7-.9h-.2c-2.2 0-2.8 2.2-3.3 4.4l-.9 4.2c0 .1-.1.2-.3.2h-1.1c-.1 0-.2 0-.2-.1v-.1l1.5-6.9c.1-.3.1-.5.1-.8 0-.5-.3-.9-.7-.9h-.2c-2.2 0-3 2.8-3.3 4.1l-1 4.5c0 .1-.1.2-.3.2h-1c-.1 0-.2 0-.2-.1v-.1l1.5-7c.1-.4.1-.8.1-1.2 0-.4-.1-.8-.2-1.3 0-.1.1-.1.2-.2l.7-.3c.1 0 .2-.1.3-.1.2 0 .4.5.4 1v.9c.7-1.2 1.9-2 3.3-2 1 0 1.8.6 1.8 2 .7-1.2 1.9-1.9 3.3-2 .9-.1 1.8.5 1.9 1.4v.2c0 .5-.1 1-.2 1.4l-1.5 7c0 .1-.1.2-.3.2h-1c-.1 0-.2 0-.2-.1v-.1l1.6-6.7zm6.4-7.3c0-.1.1-.3.2-.3l1-.3h.2c.1 0 .2.1.1.2l-1.1 5.2c-.1.5-.3 1.1-.5 1.6.8-1.3 2.2-2.2 3.8-2.2.9-.1 1.8.5 1.9 1.4v.2c0 .5-.1 1-.2 1.4l-1.5 7c0 .1-.1.2-.3.2h-1.1c-.1 0-.2 0-.2-.1v-.1l1.5-6.9c.1-.3.1-.5.1-.8 0-.6-.3-.9-.9-.9-2.2 0-3.5 2.8-3.8 4.1l-1 4.5c0 .1-.1.2-.3.2h-1.1c-.1 0-.2 0-.2-.1v-.1l3.4-14.2zm14.8 11.3c-.1.5-.2 1.1-.2 1.6 0 .4.1.8.2 1.3 0 .1-.1.1-.2.2l-.8.3c-.1 0-.2.1-.3.1-.2 0-.4-.6-.4-1.3 0-.3 0-.6.1-.9-.6 1.3-1.9 2.1-3.3 2.2-1.5 0-2.4-1.3-2.4-3.1 0-2.7 1.5-7.5 4.9-7.5.9 0 1.7.4 2.2 1.1l.3-.6c0-.1.1-.2.2-.2h.9c.1 0 .2.1.2.1v.2l-1.4 6.5zm-.5-4.9c-.5-.5-1.2-.9-1.9-.9-2.3 0-3.3 4.2-3.3 6 0 1 .3 1.8 1.3 1.8 1.8 0 2.9-2.4 3.3-4.1l.6-2.8zm5.1 7.6c0 .2-.1.4-.3.4h-1c-.1 0-.2 0-.2-.1v-.3l1.8-8.4H377c-.1 0-.2-.1-.2-.1v-.2l.1-.7c0-.1.1-.2.3-.2h2.8c.3 0 .3 0 .3.2s-.1.3-.1.5l-1.9 8.9zm2-12.1c-.6-.1-1.1-.6-1.1-1.3.1-.6.5-1 1.1-1.1.6-.1 1.2.4 1.3 1.1s-.4 1.2-1.1 1.3h-.2zm2.7 6l.3-1.5c0-.5-.1-1-.2-1.5 0-.1.1-.2.2-.3l.8-.4c.1 0 .2-.1.3-.1.2 0 .4.7.4 1.5 0 .2 0 .4-.1.6.5-1.2 1.6-1.9 2.9-2.1.3 0 .8.1.8.3 0 .1 0 .1-.1.2l-.4 1c0 .1-.1.1-.1.1s-.2-.1-.7-.1c-.8 0-1.7 1-2 1.4-.5.8-.9 1.7-1 2.6l-1 4.5c0 .1-.1.2-.3.2h-1.1c-.1 0-.2 0-.2-.1s0-.2.1-.3l1.4-6zm12.1 5.2v.1c0 .3-1.8 1.5-3.8 1.5-2.4 0-3.4-1.5-3.4-3.8 0-3.5 2.2-6.8 5.3-6.8 1.4-.1 2.6.8 2.7 2.2v.5c0 3.6-4.6 3.6-6.4 3.6v.5c0 1.5.6 2.3 1.9 2.3 1.1-.1 2.1-.4 3-1 .1 0 .1.1.2.1l.5.8zm-.6-6.2c.1-.7-.5-1.4-1.2-1.4h-.3c-2.4 0-3 2.7-3.3 3.7 1.1 0 4.8 0 4.8-2.3zm10 4.4c-.1.5-.2 1.1-.2 1.6 0 .4.1.8.2 1.3 0 .1-.1.1-.2.2l-.7.3c-.1 0-.2.1-.3.1-.2 0-.4-.6-.4-1.3 0-.3 0-.6.1-.9-.6 1.3-1.8 2.1-3.2 2.2-1.5 0-2.4-1.3-2.4-3.1 0-2.7 1.5-7.5 4.9-7.5.9 0 1.7.4 2.2 1.1l.3-.6c0-.1.1-.2.2-.2h.9c.1 0 .2.1.2.1v.2l-1.6 6.5zm-.5-4.9c-.5-.5-1.2-.9-1.9-.9-2.3 0-3.3 4.2-3.3 6 0 1 .3 1.8 1.3 1.8 1.8 0 2.9-2.4 3.3-4.1l.6-2.8zm9.4 6.8s.1.1.1.2c0 .3-1.7 1.3-3.4 1.3-2 0-2.9-1.3-2.9-3.5 0-3.4 1.9-7.1 5.4-7.1 1.3 0 2.6.6 2.6.8 0 .1 0 .2-.1.3l-.4.6c-.1.1-.1.2-.2.2s-.4-.2-.6-.3c-.4-.2-.9-.3-1.4-.3-2.5 0-3.6 3.3-3.6 5.7 0 1.2.6 2 1.9 2 .8-.1 1.7-.4 2.4-.9.1 0 .1 0 .2.1v.9zm4.8-13.2c0-.1.1-.3.2-.3l1-.3h.2c.1 0 .2.1.1.2l-1.1 5.2c-.1.5-.3 1.1-.5 1.6.8-1.3 2.2-2.2 3.8-2.2.9-.1 1.8.5 1.9 1.4v.2c0 .5-.1 1-.2 1.4l-1.5 7c0 .1-.1.2-.3.2h-1.1c-.1 0-.2 0-.2-.1v-.1l1.5-6.9c.1-.3.1-.5.1-.8 0-.6-.3-.9-.9-.9-2.2 0-3.5 2.8-3.8 4.1l-1 4.5c0 .1-.1.2-.3.2h-1c-.1 0-.2 0-.2-.1v-.1l3.3-14.2zm12.7 13.6v.2c0 .4-1.6.9-2.9.9-1.1 0-1.8-.7-1.8-2.1 0-.4.1-.8.2-1.2l1.2-5.8H426c-.1 0-.2 0-.2-.1s0-.2.1-.3l.1-.5c0-.2.1-.3.3-.3h1.5l.6-2.9c0-.1.1-.2.2-.2l1.1-.3h.1c.1 0 .1 0 .1.1v.2l-.7 3.1h2.8c.1 0 .2.1.2.1 0 .1 0 .2-.1.2l-.3.7c-.1.1-.1.2-.3.2h-2.6l-1.2 5.8c-.1.3-.1.7-.1 1 0 .8.3 1 1 1 1 0 1.6-.6 1.9-.6.1 0 .1 0 .2.1l.2.7zm15.2-1.9c-.1.3-.1.7-.1 1 0 .4.1.9.3 1.3 0 .1-.1.1-.2.2l-.8.3c-.1 0-.2.1-.3.1-.2 0-.4-.5-.4-1 0-.3 0-.5.1-.8-.8 1.2-2.2 2-3.6 2-1.1 0-2-.9-2-2v-.2c0-.4.1-.8.2-1.2l1.4-6.6c0-.1.1-.3.2-.3l1-.3h.2c.1 0 .2.1.1.2l-1.3 6.6c-.1.4-.2.8-.2 1.3 0 .7.3 1.2 1.1 1.2.9-.1 1.8-.5 2.4-1.3.6-.9 1-1.9 1.1-2.9l1-4.4c0-.1.1-.3.2-.3l1-.3h.2c.1 0 .2.1.2.2l-1.8 7.2zm14.6-4.4c.1-.3.1-.5.1-.8 0-.6-.3-.9-.9-.9-2.2 0-2.8 2.2-3.3 4.4l-.9 4.2c0 .1-.1.2-.3.2h-1.1c-.1 0-.2 0-.2-.1v-.1l1.5-6.9c.1-.3.1-.5.1-.8 0-.4-.3-.8-.7-.9h-.2c-2.2 0-3 2.8-3.3 4.1l-1 4.5c0 .1-.1.2-.3.2h-.9c-.1 0-.2 0-.2-.1v-.1l1.5-7c.1-.4.1-.8.1-1.2 0-.4-.1-.8-.2-1.3 0-.1.1-.1.2-.2l.7-.3c.1 0 .2-.1.3-.1.2 0 .4.5.4 1v.9c.7-1.2 1.9-2 3.3-2 1 0 1.8.6 1.8 2 .7-1.2 1.9-1.9 3.3-2 .9-.1 1.8.5 1.9 1.4v.2c0 .5-.1 1-.2 1.4l-1.5 7c0 .1-.1.2-.3.2h-1.1c-.1 0-.2 0-.2-.1v-.1l1.6-6.7zm17 5.7v.2c0 .1-.1.1-.2.2-1 .8-2.2 1.3-3.5 1.3-1.9 0-3.2-1.4-3.2-4.2 0-4.4 1.8-10.6 6.1-10.6 1 0 2 .4 2.8 1.1.1.1.2.2.2.3 0 .1-.1.2-.1.3l-.4.6s-.1.2-.2.2-.3-.1-.4-.3c-.5-.5-1.3-.8-2-.8-2.9 0-4.2 6.2-4.2 9.4 0 1.8.8 2.7 1.9 2.7.8-.1 1.5-.4 2.2-.9.2-.2.4-.3.5-.3s.1.1.2.2l.3.6zm4.8-13c0-.1.1-.3.2-.3l1-.3h.2c.1 0 .2.1.1.2l-1.1 5.2c-.1.5-.3 1.1-.5 1.6.8-1.3 2.3-2.2 3.8-2.2.9-.1 1.8.5 1.9 1.4v.2c0 .5-.1 1-.2 1.4l-1.5 7c0 .1-.1.2-.3.2H485c-.1 0-.2 0-.2-.1v-.1l1.5-6.9c.1-.3.1-.5.1-.8 0-.6-.3-.9-.9-.9-2.2 0-3.5 2.8-3.8 4.1l-1 4.5c0 .1-.1.2-.3.2h-1.1c-.1 0-.2 0-.2-.1v-.1l3.4-14.2zm14.8 11.3c-.1.5-.2 1.1-.2 1.6 0 .4.1.8.2 1.3 0 .1-.1.1-.2.2l-.8.3c-.1 0-.2.1-.3.1-.2 0-.4-.6-.4-1.3 0-.3 0-.6.1-.9-.6 1.3-1.9 2.1-3.3 2.2-1.5 0-2.3-1.3-2.3-3.1 0-2.7 1.5-7.5 4.9-7.5.9 0 1.7.4 2.2 1.1l.3-.6c0-.1.1-.2.2-.2h.9c.1 0 .2.1.2.1v.2l-1.5 6.5zm-.5-4.9c-.5-.5-1.2-.9-1.9-.9-2.3 0-3.3 4.2-3.3 6 0 1 .3 1.8 1.3 1.8 1.8 0 2.9-2.4 3.3-4.1l.6-2.8zm11.6 1.3c0 3.3-1.8 7.1-5.4 7.1-1.9 0-3.1-1-3.1-3.5 0-3.4 1.8-7.1 5.3-7.1 2.1 0 3.2 1.2 3.2 3.5zm-3.4-2.2c-2.5 0-3.5 3.3-3.5 5.7 0 1.4.5 2.2 1.8 2.2 2.5 0 3.5-3.4 3.5-5.7.1-1.6-.7-2.2-1.8-2.2zm16.5 1.8c.1-.3.1-.5.1-.8 0-.6-.3-.9-.9-.9-2.2 0-2.8 2.2-3.3 4.4l-.9 4.2c0 .1-.1.2-.3.2h-1.1c-.1 0-.2 0-.2-.1v-.1l1.5-6.9c.1-.3.1-.5.1-.8 0-.4-.3-.8-.7-.9h-.2c-2.2 0-3 2.8-3.3 4.1l-1 4.5c0 .1-.1.2-.3.2h-1c-.1 0-.2 0-.2-.1v-.1l1.5-7c.1-.4.1-.8.2-1.2 0-.4-.1-.8-.2-1.3 0-.1.1-.1.2-.2l.7-.3c.1 0 .2-.1.3-.1s.4.5.4 1v.9c.7-1.2 1.9-2 3.3-2 1 0 1.8.6 1.8 2 .7-1.2 1.9-1.9 3.3-2 .9-.1 1.8.5 1.9 1.4v.2c0 .5-.1 1-.2 1.4l-1.5 7c0 .1-.1.2-.2.2h-.9c-.1 0-.2 0-.2-.1v-.1l1.3-6.7zm6.4-7.3c0-.1.1-.3.2-.3l1-.3h.2c.2 0 .2.1.2.2l-1.1 5.2c-.1.5-.3 1.1-.5 1.6.8-1.3 2.2-2.2 3.8-2.2 1.1 0 1.9.6 1.9 1.7 0 .5-.1 1-.2 1.4l-1.5 7c0 .1-.1.2-.3.2h-1.1c-.1 0-.2 0-.2-.1v-.1l1.5-6.9c.1-.3.1-.5.1-.8 0-.5-.3-.9-.7-.9h-.2c-2.3 0-3.5 2.8-3.8 4.1l-1 4.5c0 .1-.1.2-.3.2h-1.1c-.1 0-.2 0-.2-.1v-.1l3.3-14.3zm8.9 7.2c.1-.4.1-.8.2-1.2 0-.4-.1-.8-.2-1.3 0-.1.1-.1.2-.2l.8-.3c.1 0 .2-.1.3-.1s.4.6.4 1.3c0 .4-.1.8-.1.9.8-1.3 2.2-2.2 3.8-2.2.9-.1 1.8.5 1.9 1.4v.2c0 .5-.1 1-.2 1.4l-1.5 7c0 .1-.1.2-.3.2H541c-.1 0-.2 0-.2-.1v-.1l1.5-6.9c.1-.3.1-.5.1-.8 0-.6-.3-.9-.9-.9-2.2 0-3.5 2.8-3.8 4.1l-1 4.5c0 .1-.1.2-.3.2h-1c-.1 0-.2 0-.2-.1v-.1l1.6-6.9zm16.4 4.5c-.1.3-.1.7-.1 1 0 .4.1.9.3 1.3 0 .1-.1.1-.2.2l-.8.3c-.1 0-.2.1-.3.1-.2 0-.4-.5-.4-1 0-.3 0-.5.1-.8-.8 1.2-2.2 2-3.6 2-1.1 0-2-.9-2-2v-.2c0-.4.1-.8.2-1.2l1.4-6.6c0-.1.1-.3.2-.3l1-.3h.2c.1 0 .2.1.2.2l-1.3 6.6c-.1.4-.2.8-.2 1.3 0 .7.3 1.2 1.1 1.2.9-.1 1.8-.5 2.4-1.3.6-.9 1-1.8 1.1-2.9l1-4.4c0-.1.1-.3.2-.3l1-.3h.2c.1 0 .1.1.1.2l-1.8 7.2zm-2.4-8.7h-.2c-.1 0-.1-.1-.2-.1l-.2-.4s-.1-.1-.1-.2 0-.1.1-.1l3.2-2.3c.1 0 .1-.1.2-.1s.2.1.2.1l.6 1c0 .1.1.1.1.2s-.1.2-.1.2l-3.6 1.7zm18.9 10v.2c0 .1-.1.1-.2.2-1 .8-2.2 1.2-3.5 1.3-1.9 0-3.2-1.4-3.2-4.2 0-4.4 1.8-10.6 6.1-10.6 1 0 2 .4 2.8 1.1.1.1.2.2.2.3 0 .1-.1.2-.1.3l-.4.6s-.1.2-.2.2-.3-.1-.4-.3c-.6-.5-1.3-.8-2-.8-2.9 0-4.2 6.2-4.2 9.4 0 1.8.8 2.7 1.9 2.7.8-.1 1.6-.4 2.2-.9.2-.2.4-.3.5-.3s.1.1.2.2l.3.6zM580 114c0 3.3-1.8 7.1-5.4 7.1-1.9 0-3.1-1-3.1-3.5 0-3.4 1.7-7.1 5.3-7.1 2 0 3.2 1.2 3.2 3.5zm-3.4-2.2c-2.5 0-3.5 3.3-3.5 5.7 0 1.4.5 2.2 1.8 2.2 2.5 0 3.5-3.4 3.5-5.7.1-1.6-.7-2.2-1.8-2.2zm16.6 1.8c.1-.3.1-.5.1-.8 0-.4-.3-.8-.7-.9h-.2c-2.2 0-2.8 2.2-3.3 4.4l-.9 4.2c0 .1-.1.2-.3.2h-1.1c-.1 0-.2 0-.2-.1v-.1l1.5-6.9c.1-.3.1-.5.1-.8 0-.6-.3-.9-.9-.9-2.2 0-3 2.8-3.3 4.1l-1 4.5c0 .1-.1.2-.3.2h-1c-.1 0-.2 0-.2-.1v-.1l1.5-7c.1-.4.1-.8.1-1.2 0-.4-.1-.8-.2-1.3 0-.1.1-.1.2-.2l.7-.3c.1 0 .2-.1.3-.1s.4.5.4 1v.9c.7-1.2 1.9-2 3.3-2 1 0 1.7.6 1.7 2 .7-1.2 1.9-1.9 3.3-2 .9-.1 1.8.5 1.9 1.4v.2c0 .5-.1 1-.2 1.4l-1.5 7c0 .1-.1.2-.3.2h-1.1c-.1 0-.2 0-.2-.1v-.1l1.8-6.7zm6.3-7.3c0-.1.1-.3.2-.3l1-.3h.2c.1 0 .2.1.1.2l-1.1 5.2c-.1.5-.3 1.1-.5 1.6.8-1.3 2.2-2.2 3.8-2.2.9-.1 1.8.5 1.9 1.4v.2c0 .5-.1 1-.2 1.4l-1.5 7c0 .1-.1.2-.3.2H602c-.1 0-.2 0-.2-.1v-.1l1.5-6.9c.1-.3.1-.5.1-.8 0-.4-.3-.8-.7-.9h-.2c-2.3 0-3.5 2.8-3.8 4.1l-1 4.5c0 .1-.1.2-.3.2h-1.1c-.1 0-.2 0-.2-.1v-.1l3.4-14.2zm13.8 5.8c-.1.1-.1.2-.3.2-.6-.3-1.2-.4-1.8-.5-1.1 0-1.8.6-1.8 1.5 0 1.1 1.4 1.6 2.3 2.4.6.5.9 1.2.9 1.9 0 2.1-1.5 3.4-3.7 3.4-1.6 0-3-.7-3-1 0-.1 0-.2.1-.3l.3-.7c.1-.1.1-.2.2-.2.8.5 1.7.7 2.6.8.9 0 1.7-.7 1.8-1.6v-.1c0-2-3.2-1.9-3.2-4.4 0-2 1.6-3.1 3.5-3.1 1.2 0 2.4.5 2.4.8v.2l-.3.7zm4.3-5.8c0-.1.1-.3.2-.3l1-.3h.2c.2 0 .2.1.2.2l-1.1 5.2c-.1.5-.3 1.1-.5 1.6.8-1.3 2.2-2.2 3.8-2.2 1.1 0 1.9.6 1.9 1.7 0 .5-.1 1-.2 1.4l-1.5 7c0 .1-.1.2-.3.2h-1c-.1 0-.2 0-.2-.1v-.1l1.5-6.9c.1-.3.1-.5.1-.8 0-.5-.3-.9-.7-.9h-.2c-2.3 0-3.5 2.8-3.8 4.1l-1 4.5c0 .1-.1.2-.3.2h-1.1c-.1 0-.2 0-.2-.1v-.1l3.2-14.3zm14.8 11.3c-.1.5-.2 1.1-.2 1.6 0 .4.1.8.2 1.3 0 .1-.1.1-.2.2l-.8.3c-.1 0-.2.1-.3.1-.2 0-.4-.6-.4-1.3 0-.3 0-.6.1-.9-.6 1.3-1.9 2.1-3.3 2.2-1.5 0-2.3-1.3-2.3-3.1 0-2.7 1.5-7.5 4.9-7.5.9 0 1.7.4 2.2 1.1l.3-.6c0-.1.1-.2.2-.2h.9c.1 0 .2.1.2.1v.2l-1.5 6.5zm-.5-4.9c-.5-.5-1.2-.9-1.9-.9-2.3 0-3.3 4.2-3.3 6 0 1 .3 1.8 1.3 1.8 1.8 0 2.9-2.4 3.3-4.1l.6-2.8zm11.7 1.3c0 3.3-1.8 7.1-5.4 7.1-1.9 0-3.1-1-3.1-3.5 0-3.4 1.8-7.1 5.3-7.1 2 0 3.2 1.2 3.2 3.5zm-3.4-2.2c-2.5 0-3.5 3.3-3.5 5.7 0 1.4.5 2.2 1.8 2.2 2.5 0 3.5-3.4 3.5-5.7 0-1.6-.7-2.2-1.8-2.2zm6.8 8.5c0 .2-.1.4-.3.4h-1.1c-.1 0-.2 0-.2-.1v-.3l1.8-8.4h-1.6c-.2 0-.2-.1-.2-.1v-.2l.2-.7c0-.1.1-.2.3-.2h2.8c.3 0 .3 0 .3.2s-.1.3-.1.5l-1.9 8.9zm2-12.1c-.6.1-1.2-.4-1.3-1.1-.1-.6.4-1.2 1.1-1.3h.2c.6.1 1.1.6 1.1 1.3-.1.6-.5 1-1.1 1.1zm5.1 11.9v.2c0 .3-1 .7-1.8.7-.8.1-1.6-.5-1.7-1.3v-.3c.1-.8.2-1.7.4-2.5l2.3-10.7c0-.1.1-.3.2-.3l1-.3h.2c.2 0 .2.1.2.2l-2.3 11.1c-.2.7-.3 1.4-.3 2.1 0 .5.2.7.6.7.5 0 .9-.4 1.1-.4s.1 0 .2.1l-.1.7zm-559.2-4.4c-9.5 4.5-20.9.4-25.3-9.2-4.5-9.5-.4-20.9 9.2-25.3 8-3.7 17.5-1.5 23 5.4L81.2 96l3.8 8.2 29.2-13.6-1.8-3.9-.1-.1C105.7 72.4 89 66.3 74.9 72.9c-14.1 6.5-20.2 23.3-13.6 37.4s23.3 20.2 37.4 13.6c4.3-2 8.1-5.1 10.9-9l-5.2-9c-1.9 4.3-5.3 7.8-9.5 9.8zm50.7-45.4c-15.5 0-28.1 12.6-28.1 28.1v46.8h9V119c11.4 10.5 29.2 9.8 39.7-1.6 10.5-11.4 9.8-29.2-1.6-39.7-5.1-4.7-11.9-7.4-19-7.4m0 47.1c-10.5 0-19.1-8.5-19.1-19.1s8.5-19.1 19.1-19.1 19.1 8.5 19.1 19.1c0 10.6-8.5 19.1-19.1 19.1z"/><path class="st1" d="M224 73.7l.3 4.3c-11.3-10.7-29-10.2-39.7 1.1-10.7 11.3-10.2 29 1.1 39.7 10.7 10.2 27.5 10.3 38.4.2v4.1h9V73.7H224zm-19 43.7c-10.5 0-19.1-8.5-19.1-19.1s8.5-19.1 19.1-19.1c10.5 0 19.1 8.5 19.1 19.1 0 10.6-8.6 19.1-19.1 19.1z"/></svg>